<svg width="15" height="15" viewBox="0 0 15 15" fill="none" xmlns="http://www.w3.org/2000/svg">
<path d="M7.5 4.09091C5.61818 4.09091 4.09091 5.61818 4.09091 7.5C4.09091 9.38182 5.61818 10.9091 7.5 10.9091C9.38182 10.9091 10.9091 9.38182 10.9091 7.5C10.9091 5.61818 9.38182 4.09091 7.5 4.09091ZM0.681818 8.18182H2.04545C2.42045 8.18182 2.72727 7.875 2.72727 7.5C2.72727 7.125 2.42045 6.81818 2.04545 6.81818H0.681818C0.306818 6.81818 0 7.125 0 7.5C0 7.875 0.306818 8.18182 0.681818 8.18182ZM12.9545 8.18182H14.3182C14.6932 8.18182 15 7.875 15 7.5C15 7.125 14.6932 6.81818 14.3182 6.81818H12.9545C12.5795 6.81818 12.2727 7.125 12.2727 7.5C12.2727 7.875 12.5795 8.18182 12.9545 8.18182ZM6.81818 0.681818V2.04545C6.81818 2.42045 7.125 2.72727 7.5 2.72727C7.875 2.72727 8.18182 2.42045 8.18182 2.04545V0.681818C8.18182 0.306818 7.875 0 7.5 0C7.125 0 6.81818 0.306818 6.81818 0.681818ZM6.81818 12.9545V14.3182C6.81818 14.6932 7.125 15 7.5 15C7.875 15 8.18182 14.6932 8.18182 14.3182V12.9545C8.18182 12.5795 7.875 12.2727 7.5 12.2727C7.125 12.2727 6.81818 12.5795 6.81818 12.9545ZM3.40227 2.44091C3.13636 2.175 2.7 2.175 2.44091 2.44091C2.175 2.70682 2.175 3.14318 2.44091 3.40227L3.16364 4.125C3.42955 4.39091 3.86591 4.39091 4.125 4.125C4.38409 3.85909 4.39091 3.42273 4.125 3.16364L3.40227 2.44091ZM11.8364 10.875C11.5705 10.6091 11.1341 10.6091 10.875 10.875C10.6091 11.1409 10.6091 11.5773 10.875 11.8364L11.5977 12.5591C11.8636 12.825 12.3 12.825 12.5591 12.5591C12.825 12.2932 12.825 11.8568 12.5591 11.5977L11.8364 10.875ZM12.5591 3.40227C12.825 3.13636 12.825 2.7 12.5591 2.44091C12.2932 2.175 11.8568 2.175 11.5977 2.44091L10.875 3.16364C10.6091 3.42955 10.6091 3.86591 10.875 4.125C11.1409 4.38409 11.5773 4.39091 11.8364 4.125L12.5591 3.40227ZM4.125 11.8364C4.39091 11.5705 4.39091 11.1341 4.125 10.875C3.85909 10.6091 3.42273 10.6091 3.16364 10.875L2.44091 11.5977C2.175 11.8636 2.175 12.3 2.44091 12.5591C2.70682 12.8182 3.14318 12.825 3.40227 12.5591L4.125 11.8364Z" fill="white"/>
</svg>
